<svg width="183" height="39" viewBox="0 0 183 39" fill="none" xmlns="http://www.w3.org/2000/svg">
<g id="DevTools" filter="url(#filter0_d_1_2)">
<path d="M12.76 2.12C15.8 2.12 18.4267 2.69333 20.64 3.84C22.88 4.96 24.5867 6.57333 25.76 8.68C26.96 10.7867 27.56 13.2667 27.56 16.12C27.56 18.9733 26.96 21.4533 25.76 23.56C24.5867 25.64 22.88 27.24 20.64 28.36C18.4267 29.4533 15.8 30 12.76 30H4.08V2.12H12.76ZM12.76 27C16.36 27 19.1067 26.0533 21 24.16C22.8933 22.24 23.84 19.56 23.84 16.12C23.84 12.6533 22.88 9.94667 20.96 8C19.0667 6.05333 16.3333 5.08 12.76 5.08H7.72V27H12.76ZM96.7478 2.12V5.08H89.1478V30H85.5078V5.08H77.8678V2.12H96.7478Z" fill="black"/>
<path d="M52.3613 18.2C52.3613 18.8933 52.3213 19.6267 52.2413 20.4H34.7213C34.8546 22.56 35.5879 24.2533 36.9213 25.48C38.2813 26.68 39.9213 27.28 41.8413 27.28C43.4146 27.28 44.7213 26.92 45.7613 26.2C46.8279 25.4533 47.5746 24.4667 48.0013 23.24H51.9213C51.3346 25.3467 50.1613 27.0667 48.4013 28.4C46.6413 29.7067 44.4546 30.36 41.8413 30.36C39.7613 30.36 37.8946 29.8933 36.2413 28.96C34.6146 28.0267 33.3346 26.7067 32.4013 25C31.4679 23.2667 31.0013 21.2667 31.0013 19C31.0013 16.7333 31.4546 14.7467 32.3613 13.04C33.2679 11.3333 34.5346 10.0267 36.1613 9.12C37.8146 8.18667 39.7079 7.72 41.8413 7.72C43.9213 7.72 45.7613 8.17333 47.3613 9.08C48.9613 9.98667 50.1879 11.24 51.0413 12.84C51.9213 14.4133 52.3613 16.2 52.3613 18.2ZM48.6013 17.44C48.6013 16.0533 48.2946 14.8667 47.6813 13.88C47.0679 12.8667 46.2279 12.1067 45.1613 11.6C44.1213 11.0667 42.9613 10.8 41.6813 10.8C39.8413 10.8 38.2679 11.3867 36.9613 12.56C35.6813 13.7333 34.9479 15.36 34.7613 17.44H48.6013ZM65.3259 26.64L72.1259 8.08H76.0059L67.4059 30H63.1659L54.5659 8.08H58.4859L65.3259 26.64ZM110.788 30.36C108.735 30.36 106.868 29.8933 105.188 28.96C103.535 28.0267 102.228 26.7067 101.268 25C100.335 23.2667 99.8684 21.2667 99.8684 19C99.8684 16.76 100.348 14.7867 101.308 13.08C102.295 11.3467 103.628 10.0267 105.308 9.12C106.988 8.18667 108.868 7.72 110.948 7.72C113.028 7.72 114.908 8.18667 116.588 9.12C118.268 10.0267 119.588 11.3333 120.548 13.04C121.535 14.7467 122.028 16.7333 122.028 19C122.028 21.2667 121.522 23.2667 120.508 25C119.522 26.7067 118.175 28.0267 116.468 28.96C114.762 29.8933 112.868 30.36 110.788 30.36ZM110.788 27.16C112.095 27.16 113.322 26.8533 114.468 26.24C115.615 25.6267 116.535 24.7067 117.228 23.48C117.948 22.2533 118.308 20.76 118.308 19C118.308 17.24 117.962 15.7467 117.268 14.52C116.575 13.2933 115.668 12.3867 114.548 11.8C113.428 11.1867 112.215 10.88 110.908 10.88C109.575 10.88 108.348 11.1867 107.228 11.8C106.135 12.3867 105.255 13.2933 104.588 14.52C103.922 15.7467 103.588 17.24 103.588 19C103.588 20.7867 103.908 22.2933 104.548 23.52C105.215 24.7467 106.095 25.6667 107.188 26.28C108.282 26.8667 109.482 27.16 110.788 27.16ZM136.374 30.36C134.321 30.36 132.454 29.8933 130.774 28.96C129.121 28.0267 127.814 26.7067 126.854 25C125.921 23.2667 125.454 21.2667 125.454 19C125.454 16.76 125.934 14.7867 126.894 13.08C127.881 11.3467 129.214 10.0267 130.894 9.12C132.574 8.18667 134.454 7.72 136.534 7.72C138.614 7.72 140.494 8.18667 142.174 9.12C143.854 10.0267 145.174 11.3333 146.134 13.04C147.121 14.7467 147.614 16.7333 147.614 19C147.614 21.2667 147.108 23.2667 146.094 25C145.108 26.7067 143.761 28.0267 142.054 28.96C140.348 29.8933 138.454 30.36 136.374 30.36ZM136.374 27.16C137.681 27.16 138.908 26.8533 140.054 26.24C141.201 25.6267 142.121 24.7067 142.814 23.48C143.534 22.2533 143.894 20.76 143.894 19C143.894 17.24 143.548 15.7467 142.854 14.52C142.161 13.2933 141.254 12.3867 140.134 11.8C139.014 11.1867 137.801 10.88 136.494 10.88C135.161 10.88 133.934 11.1867 132.814 11.8C131.721 12.3867 130.841 13.2933 130.174 14.52C129.508 15.7467 129.174 17.24 129.174 19C129.174 20.7867 129.494 22.2933 130.134 23.52C130.801 24.7467 131.681 25.6667 132.774 26.28C133.868 26.8667 135.068 27.16 136.374 27.16ZM156.04 0.4V30H152.4V0.4H156.04ZM170.004 30.36C168.324 30.36 166.817 30.08 165.484 29.52C164.151 28.9333 163.097 28.1333 162.324 27.12C161.551 26.08 161.124 24.8933 161.044 23.56H164.804C164.911 24.6533 165.417 25.5467 166.324 26.24C167.257 26.9333 168.471 27.28 169.964 27.28C171.351 27.28 172.444 26.9733 173.244 26.36C174.044 25.7467 174.444 24.9733 174.444 24.04C174.444 23.08 174.017 22.3733 173.164 21.92C172.311 21.44 170.991 20.9733 169.204 20.52C167.577 20.0933 166.244 19.6667 165.204 19.24C164.191 18.7867 163.311 18.1333 162.564 17.28C161.844 16.4 161.484 15.2533 161.484 13.84C161.484 12.72 161.817 11.6933 162.484 10.76C163.151 9.82667 164.097 9.09333 165.324 8.56C166.551 8 167.951 7.72 169.524 7.72C171.951 7.72 173.911 8.33333 175.404 9.56C176.897 10.7867 177.697 12.4667 177.804 14.6H174.164C174.084 13.4533 173.617 12.5333 172.764 11.84C171.937 11.1467 170.817 10.8 169.404 10.8C168.097 10.8 167.057 11.08 166.284 11.64C165.511 12.2 165.124 12.9333 165.124 13.84C165.124 14.56 165.351 15.16 165.804 15.64C166.284 16.0933 166.871 16.4667 167.564 16.76C168.284 17.0267 169.271 17.3333 170.524 17.68C172.097 18.1067 173.377 18.5333 174.364 18.96C175.351 19.36 176.191 19.9733 176.884 20.8C177.604 21.6267 177.977 22.7067 178.004 24.04C178.004 25.24 177.671 26.32 177.004 27.28C176.337 28.24 175.391 29 174.164 29.56C172.964 30.0933 171.577 30.36 170.004 30.36Z" fill="white"/>
</g>
<defs>
<filter id="filter0_d_1_2" x="0.0799866" y="0.399994" width="181.924" height="37.96" filterUnits="userSpaceOnUse" color-interpolation-filters="sRGB">
<feFlood flood-opacity="0" result="BackgroundImageFix"/>
<feColorMatrix in="SourceAlpha" type="matrix" values="0 0 0 0 0 0 0 0 0 0 0 0 0 0 0 0 0 0 127 0" result="hardAlpha"/>
<feOffset dy="4"/>
<feGaussianBlur stdDeviation="2"/>
<feComposite in2="hardAlpha" operator="out"/>
<feColorMatrix type="matrix" values="0 0 0 0 0 0 0 0 0 0 0 0 0 0 0 0 0 0 0.25 0"/>
<feBlend mode="normal" in2="BackgroundImageFix" result="effect1_dropShadow_1_2"/>
<feBlend mode="normal" in="SourceGraphic" in2="effect1_dropShadow_1_2" result="shape"/>
</filter>
</defs>
</svg>
